<svg width="40" height="40" viewBox="0 0 40 40" fill="none" xmlns="http://www.w3.org/2000/svg" shape-rendering="crispEdges">
  <rect x="27" y="2" width="1" height="1" fill="#101010"/>
  <rect x="15" y="3" width="9" height="1" fill="#101010"/>
  <rect x="27" y="3" width="1" height="1" fill="#101010"/>
  <rect x="12" y="4" width="18" height="1" fill="#101010"/>
  <rect x="12" y="5" width="19" height="1" fill="#101010"/>
  <rect x="11" y="6" width="17" height="1" fill="#101010"/>
  <rect x="9" y="7" width="21" height="1" fill="#101010"/>
  <rect x="9" y="8" width="21" height="1" fill="#101010"/>
  <rect x="9" y="9" width="21" height="1" fill="#101010"/>
  <rect x="8" y="10" width="23" height="1" fill="#101010"/>
  <rect x="8" y="11" width="23" height="1" fill="#101010"/>
  <rect x="8" y="12" width="23" height="1" fill="#101010"/>
  <rect x="8" y="13" width="23" height="1" fill="#101010"/>
  <rect x="7" y="14" width="14" height="1" fill="#101010"/>
  <rect x="21" y="14" width="2" height="1" fill="#ECECEC"/>
  <rect x="23" y="14" width="7" height="1" fill="#101010"/>
  <rect x="30" y="14" width="1" height="1" fill="#ECECEC"/>
  <rect x="31" y="14" width="1" height="1" fill="#101010"/>
  <rect x="7" y="15" width="1" height="1" fill="#101010"/>
  <rect x="8" y="15" width="1" height="1" fill="#ECECEC"/>
  <rect x="9" y="15" width="12" height="1" fill="#101010"/>
  <rect x="21" y="15" width="3" height="1" fill="#ECECEC"/>
  <rect x="24" y="15" width="6" height="1" fill="#101010"/>
  <rect x="30" y="15" width="1" height="1" fill="#ECECEC"/>
  <rect x="31" y="15" width="1" height="1" fill="#101010"/>
  <rect x="7" y="16" width="1" height="1" fill="#101010"/>
  <rect x="8" y="16" width="2" height="1" fill="#ECECEC"/>
  <rect x="10" y="16" width="8" height="1" fill="#101010"/>
  <rect x="18" y="16" width="7" height="1" fill="#ECECEC"/>
  <rect x="25" y="16" width="4" height="1" fill="#101010"/>
  <rect x="29" y="16" width="2" height="1" fill="#ECECEC"/>
  <rect x="31" y="16" width="1" height="1" fill="#101010"/>
  <rect x="7" y="17" width="1" height="1" fill="#101010"/>
  <rect x="8" y="17" width="3" height="1" fill="#ECECEC"/>
  <rect x="11" y="17" width="5" height="1" fill="#101010"/>
  <rect x="16" y="17" width="7" height="1" fill="#ECECEC"/>
  <rect x="23" y="17" width="2" height="1" fill="#101010"/>
  <rect x="25" y="17" width="1" height="1" fill="#ECECEC"/>
  <rect x="26" y="17" width="2" height="1" fill="#101010"/>
  <rect x="28" y="17" width="3" height="1" fill="#ECECEC"/>
  <rect x="31" y="17" width="1" height="1" fill="#101010"/>
  <rect x="8" y="18" width="1" height="1" fill="#101010"/>
  <rect x="9" y="18" width="2" height="1" fill="#ECECEC"/>
  <rect x="11" y="18" width="1" height="1" fill="#101010"/>
  <rect x="12" y="18" width="2" height="1" fill="#ECECEC"/>
  <rect x="14" y="18" width="2" height="1" fill="#101010"/>
  <rect x="16" y="18" width="7" height="1" fill="#ECECEC"/>
  <rect x="23" y="18" width="2" height="1" fill="#101010"/>
  <rect x="25" y="18" width="2" height="1" fill="#ECECEC"/>
  <rect x="27" y="18" width="1" height="1" fill="#101010"/>
  <rect x="28" y="18" width="2" height="1" fill="#ECECEC"/>
  <rect x="30" y="18" width="1" height="1" fill="#101010"/>
  <rect x="9" y="19" width="3" height="1" fill="#101010"/>
  <rect x="12" y="19" width="2" height="1" fill="#ECECEC"/>
  <rect x="14" y="19" width="2" height="1" fill="#101010"/>
  <rect x="16" y="19" width="7" height="1" fill="#ECECEC"/>
  <rect x="23" y="19" width="2" height="1" fill="#101010"/>
  <rect x="25" y="19" width="2" height="1" fill="#ECECEC"/>
  <rect x="27" y="19" width="3" height="1" fill="#101010"/>
  <rect x="10" y="20" width="2" height="1" fill="#101010"/>
  <rect x="12" y="20" width="15" height="1" fill="#ECECEC"/>
  <rect x="27" y="20" width="2" height="1" fill="#101010"/>
  <rect x="12" y="21" width="1" height="1" fill="#101010"/>
  <rect x="13" y="21" width="13" height="1" fill="#ECECEC"/>
  <rect x="26" y="21" width="1" height="1" fill="#101010"/>
  <rect x="13" y="22" width="3" height="1" fill="#101010"/>
  <rect x="16" y="22" width="7" height="1" fill="#ECECEC"/>
  <rect x="23" y="22" width="3" height="1" fill="#101010"/>
  <rect x="14" y="23" width="11" height="1" fill="#101010"/>
  <rect x="14" y="24" width="5" height="1" fill="#101010"/>
  <rect x="19" y="24" width="1" height="1" fill="#ECECEC"/>
  <rect x="20" y="24" width="5" height="1" fill="#101010"/>
  <rect x="13" y="25" width="1" height="1" fill="#101010"/>
  <rect x="14" y="25" width="2" height="1" fill="#ECECEC"/>
  <rect x="16" y="25" width="3" height="1" fill="#101010"/>
  <rect x="19" y="25" width="1" height="1" fill="#ECECEC"/>
  <rect x="20" y="25" width="3" height="1" fill="#101010"/>
  <rect x="23" y="25" width="2" height="1" fill="#ECECEC"/>
  <rect x="25" y="25" width="1" height="1" fill="#101010"/>
  <rect x="12" y="26" width="1" height="1" fill="#101010"/>
  <rect x="13" y="26" width="3" height="1" fill="#ECECEC"/>
  <rect x="16" y="26" width="7" height="1" fill="#101010"/>
  <rect x="23" y="26" width="3" height="1" fill="#ECECEC"/>
  <rect x="26" y="26" width="1" height="1" fill="#101010"/>
  <rect x="11" y="27" width="1" height="1" fill="#101010"/>
  <rect x="12" y="27" width="2" height="1" fill="#ECECEC"/>
  <rect x="14" y="27" width="11" height="1" fill="#101010"/>
  <rect x="25" y="27" width="2" height="1" fill="#ECECEC"/>
  <rect x="27" y="27" width="1" height="1" fill="#101010"/>
  <rect x="10" y="28" width="1" height="1" fill="#101010"/>
  <rect x="11" y="28" width="2" height="1" fill="#ECECEC"/>
  <rect x="13" y="28" width="13" height="1" fill="#101010"/>
  <rect x="26" y="28" width="2" height="1" fill="#ECECEC"/>
  <rect x="28" y="28" width="1" height="1" fill="#101010"/>
  <rect x="9" y="29" width="2" height="1" fill="#101010"/>
  <rect x="11" y="29" width="2" height="1" fill="#ECECEC"/>
  <rect x="13" y="29" width="13" height="1" fill="#101010"/>
  <rect x="26" y="29" width="2" height="1" fill="#ECECEC"/>
  <rect x="28" y="29" width="2" height="1" fill="#101010"/>
  <rect x="10" y="30" width="1" height="1" fill="#101010"/>
  <rect x="11" y="30" width="2" height="1" fill="#ECECEC"/>
  <rect x="13" y="30" width="13" height="1" fill="#101010"/>
  <rect x="26" y="30" width="2" height="1" fill="#ECECEC"/>
  <rect x="28" y="30" width="1" height="1" fill="#101010"/>
  <rect x="11" y="31" width="4" height="1" fill="#101010"/>
  <rect x="15" y="31" width="1" height="1" fill="#ECECEC"/>
  <rect x="16" y="31" width="7" height="1" fill="#101010"/>
  <rect x="23" y="31" width="2" height="1" fill="#ECECEC"/>
  <rect x="25" y="31" width="3" height="1" fill="#101010"/>
  <rect x="13" y="32" width="2" height="1" fill="#101010"/>
  <rect x="15" y="32" width="1" height="1" fill="#ECECEC"/>
  <rect x="16" y="32" width="1" height="1" fill="#101010"/>
  <rect x="17" y="32" width="1" height="1" fill="#ECECEC"/>
  <rect x="18" y="32" width="3" height="1" fill="#101010"/>
  <rect x="21" y="32" width="1" height="1" fill="#ECECEC"/>
  <rect x="22" y="32" width="1" height="1" fill="#101010"/>
  <rect x="23" y="32" width="2" height="1" fill="#ECECEC"/>
  <rect x="25" y="32" width="1" height="1" fill="#101010"/>
  <rect x="13" y="33" width="13" height="1" fill="#101010"/>
  <rect x="13" y="34" width="2" height="1" fill="#101010"/>
  <rect x="15" y="34" width="2" height="1" fill="#ECECEC"/>
  <rect x="17" y="34" width="1" height="1" fill="#101010"/>
  <rect x="21" y="34" width="1" height="1" fill="#101010"/>
  <rect x="22" y="34" width="2" height="1" fill="#ECECEC"/>
  <rect x="24" y="34" width="2" height="1" fill="#101010"/>
  <rect x="13" y="35" width="2" height="1" fill="#101010"/>
  <rect x="15" y="35" width="2" height="1" fill="#ECECEC"/>
  <rect x="17" y="35" width="1" height="1" fill="#101010"/>
  <rect x="21" y="35" width="1" height="1" fill="#101010"/>
  <rect x="22" y="35" width="2" height="1" fill="#ECECEC"/>
  <rect x="24" y="35" width="2" height="1" fill="#101010"/>
  <rect x="13" y="36" width="5" height="1" fill="#101010"/>
  <rect x="21" y="36" width="5" height="1" fill="#101010"/>
  <rect x="14" y="37" width="3" height="1" fill="#101010"/>
  <rect x="22" y="37" width="3" height="1" fill="#101010"/>
</svg>
